<svg xmlns="http://www.w3.org/2000/svg" viewBox="0 0 660 164" fill="none">
  <defs>
    <clipPath id="play-triangle-small">
      <path d="M39 40V112L123 76L39 40Z"/>
    </clipPath>
  </defs>
  <rect x="10" y="14" width="124" height="124" rx="34" fill="#FF6719"/>
  <rect x="10" y="14" width="124" height="124" rx="34" stroke="#E35413" stroke-width="4"/>
  <path d="M39 40V112L123 76L39 40Z" fill="#FFF9F0"/>
  <g clip-path="url(#play-triangle-small)">
    <rect x="39" y="58" width="92" height="7.5" rx="0.8" fill="#FF6719"/>
    <rect x="39" y="72" width="92" height="7.5" rx="0.8" fill="#FF6719"/>
    <rect x="39" y="86" width="92" height="7.5" rx="0.8" fill="#FF6719"/>
  </g>
  <path d="M171 114V45.6H187.95V114H171ZM202.098 114V58H218.61V114H202.098ZM210.402 49.72C204.87 49.72 201.102 45.952 201.102 40.744C201.102 35.412 204.87 31.768 210.402 31.768C215.81 31.768 219.702 35.412 219.702 40.744C219.702 45.952 215.81 49.72 210.402 49.72ZM255.909 115.056C239.769 115.056 228.969 104.752 228.969 86C228.969 67.248 239.769 56.944 255.909 56.944C272.049 56.944 282.849 67.248 282.849 86C282.849 104.752 272.049 115.056 255.909 115.056ZM255.909 101.472C262.737 101.472 266.337 95.688 266.337 86C266.337 76.312 262.737 70.528 255.909 70.528C249.081 70.528 245.481 76.312 245.481 86C245.481 95.688 249.081 101.472 255.909 101.472ZM292.748 114V58H308.828V66.088H309.26C312.356 60.304 317.996 56.944 326.276 56.944C338.876 56.944 346.676 65.472 346.676 79.632V114H330.164V82.944C330.164 75.012 326.012 70.528 319.4 70.528C312.572 70.528 309.26 75.26 309.26 83.688V114H292.748ZM378.587 115.056C365.387 115.056 356.243 108.972 355.667 99.14H371.315C371.963 103.58 375.923 106.388 382.331 106.388C388.163 106.388 391.619 104.356 391.619 101.044C391.619 98.236 389.371 96.78 383.395 95.396L374.755 93.364C362.803 90.556 357.667 85.6 357.667 76.528C357.667 64.936 367.859 56.944 382.907 56.944C397.451 56.944 406.955 64.972 407.459 75.38H392.459C391.739 71.228 388.559 68.66 382.763 68.66C377.447 68.66 374.107 70.836 374.107 74.04C374.107 76.74 376.391 78.484 381.527 79.652L390.347 81.648C402.875 84.528 408.059 89.124 408.059 98.524C408.059 110.62 397.015 115.056 378.587 115.056ZM420.908 114V58H437.42V114H420.908ZM429.212 49.72C423.68 49.72 419.912 45.952 419.912 40.744C419.912 35.412 423.68 31.768 429.212 31.768C434.62 31.768 438.512 35.412 438.512 40.744C438.512 45.952 434.62 49.72 429.212 49.72ZM471.755 71.044V95.468C471.755 99.284 473.715 101.148 477.807 101.148H486.915V114H474.459C462.507 114 455.243 108.684 455.243 97.848V71.044H446.819V58H455.243V44.308H471.755V58H486.915V71.044H471.755ZM499.825 114V58H516.337V114H499.825ZM508.129 49.72C502.597 49.72 498.829 45.952 498.829 40.744C498.829 35.412 502.597 31.768 508.129 31.768C513.537 31.768 517.429 35.412 517.429 40.744C517.429 45.952 513.537 49.72 508.129 49.72ZM553.636 115.056C537.496 115.056 526.696 104.752 526.696 86C526.696 67.248 537.496 56.944 553.636 56.944C569.776 56.944 580.576 67.248 580.576 86C580.576 104.752 569.776 115.056 553.636 115.056ZM553.636 101.472C560.464 101.472 564.064 95.688 564.064 86C564.064 76.312 560.464 70.528 553.636 70.528C546.808 70.528 543.208 76.312 543.208 86C543.208 95.688 546.808 101.472 553.636 101.472ZM590.475 114V58H606.555V66.088H606.987C610.083 60.304 615.723 56.944 624.003 56.944C636.603 56.944 644.403 65.472 644.403 79.632V114H627.891V82.944C627.891 75.012 623.739 70.528 617.127 70.528C610.299 70.528 606.987 75.26 606.987 83.688V114H590.475Z" fill="#111111"/>
</svg>
